<?xml version="1.0" encoding="UTF-8" standalone="no"?>
<svg
   xmlns:dc="http://purl.org/dc/elements/1.1/"
   xmlns:cc="http://creativecommons.org/ns#"
   xmlns:rdf="http://www.w3.org/1999/02/22-rdf-syntax-ns#"
   xmlns:svg="http://www.w3.org/2000/svg"
   xmlns="http://www.w3.org/2000/svg"
   xmlns:sodipodi="http://sodipodi.sourceforge.net/DTD/sodipodi-0.dtd"
   xmlns:inkscape="http://www.inkscape.org/namespaces/inkscape"
   id="Layer_1"
   style="enable-background:new 1 -1 100 100;"
   version="1.1"
   viewBox="1 -1 100 100"
   xml:space="preserve"
   sodipodi:docname="chatIcon.svg"
   inkscape:version="0.92.0 r15299"><metadata
     id="metadata4494"><rdf:RDF><cc:Work
         rdf:about=""><dc:format>image/svg+xml</dc:format><dc:type
           rdf:resource="http://purl.org/dc/dcmitype/StillImage" /></cc:Work></rdf:RDF></metadata><defs
     id="defs4492" /><sodipodi:namedview
     pagecolor="#ffffff"
     bordercolor="#666666"
     borderopacity="1"
     objecttolerance="10"
     gridtolerance="10"
     guidetolerance="10"
     inkscape:pageopacity="0"
     inkscape:pageshadow="2"
     inkscape:window-width="1920"
     inkscape:window-height="1017"
     id="namedview4490"
     showgrid="false"
     inkscape:zoom="8.48"
     inkscape:cx="50"
     inkscape:cy="50"
     inkscape:window-x="-8"
     inkscape:window-y="-8"
     inkscape:window-maximized="1"
     inkscape:current-layer="Layer_1" /><title
     id="title4485" /><path
     d="M66.3,8.1C61.2,6.4,56,5.6,50.7,5.8C27,6.5,8.3,26.3,9.1,50.1c0.1,4.9,1.1,9.7,2.9,14.2c1.5,3.8,3.5,7.4,6.1,10.6l-3.6,8.5  c-1.4,3.2,0.1,7,3.4,8.3c1.1,0.5,2.4,0.6,3.6,0.4L38,89.2c22.4,7.8,46.9-4,54.7-26.4C100.5,40.4,88.7,15.9,66.3,8.1z M34.7,56.1  c-3.6,0-6.6-2.9-6.6-6.6c0-3.6,2.9-6.6,6.6-6.6c3.6,0,6.6,2.9,6.6,6.6S38.3,56.1,34.7,56.1z M52,56.1c-3.6,0-6.6-2.9-6.6-6.6  s2.9-6.6,6.6-6.6c3.6,0,6.6,2.9,6.6,6.6S55.6,56.1,52,56.1z M69.3,56.1c-3.6,0-6.6-2.9-6.6-6.6s2.9-6.6,6.6-6.6  c3.6,0,6.6,2.9,6.6,6.6S72.9,56.1,69.3,56.1z"
     id="path4487"
     style="fill:#ff6600" /></svg>