<?xml version="1.0" encoding="UTF-8" standalone="no"?>
<svg
   xmlns:dc="http://purl.org/dc/elements/1.1/"
   xmlns:cc="http://creativecommons.org/ns#"
   xmlns:rdf="http://www.w3.org/1999/02/22-rdf-syntax-ns#"
   xmlns:svg="http://www.w3.org/2000/svg"
   xmlns="http://www.w3.org/2000/svg"
   xmlns:sodipodi="http://sodipodi.sourceforge.net/DTD/sodipodi-0.dtd"
   xmlns:inkscape="http://www.inkscape.org/namespaces/inkscape"
   id="Layer_1"
   style="enable-background:new 0 0 30 30;"
   version="1.1"
   viewBox="0 0 30 30"
   xml:space="preserve"
   sodipodi:docname="ICONSMS.svg"
   inkscape:version="0.92.0 r15299"><metadata
     id="metadata4496"><rdf:RDF><cc:Work
         rdf:about=""><dc:format>image/svg+xml</dc:format><dc:type
           rdf:resource="http://purl.org/dc/dcmitype/StillImage" /><dc:title></dc:title></cc:Work></rdf:RDF></metadata><defs
     id="defs4494" /><sodipodi:namedview
     pagecolor="#ffffff"
     bordercolor="#666666"
     borderopacity="1"
     objecttolerance="10"
     gridtolerance="10"
     guidetolerance="10"
     inkscape:pageopacity="0"
     inkscape:pageshadow="2"
     inkscape:window-width="1920"
     inkscape:window-height="1017"
     id="namedview4492"
     showgrid="false"
     inkscape:zoom="28.266667"
     inkscape:cx="15"
     inkscape:cy="15"
     inkscape:window-x="-8"
     inkscape:window-y="-8"
     inkscape:window-maximized="1"
     inkscape:current-layer="Layer_1" /><path
     d="m 9.2513363,22.397 c 0.063182,1.410614 -0.1254856,3.349865 -2.009525,4.255705 l 0.1561989,0.877389 c 2.5421807,0 5.3520058,-1.763956 6.4339898,-4.733863 z"
     id="path4485"
     style="fill:#7d3c98;fill-opacity:1;stroke-width:0.89742088"
     inkscape:connector-curvature="0" /><ellipse
     cx="7.3667455"
     cy="27.075472"
     id="circle4487"
     style="fill:#7d3c98;fill-opacity:1;stroke-width:0.84061581"
     rx="0.4115566"
     ry="0.42924529" /><path
     d="M 23.477503,6.0165094 H 7.9022133 c -1.9114342,0 -3.4611756,1.5027082 -3.4611756,3.3561324 V 19.441038 c 0,1.853424 1.5497414,3.356132 3.4611756,3.356132 H 23.477503 c 1.911435,0 3.461176,-1.502708 3.461176,-3.356132 V 9.3726418 c 0,-1.8534242 -1.549741,-3.3561324 -3.461176,-3.3561324 z M 15.689858,16.084906 c -0.95615,0 -1.730588,-0.750935 -1.730588,-1.678066 0,-0.927132 0.774438,-1.678066 1.730588,-1.678066 0.95615,0 1.730588,0.750934 1.730588,1.678066 0,0.927131 -0.774438,1.678066 -1.730588,1.678066 z m 5.191764,0 c -0.95615,0 -1.730588,-0.750935 -1.730588,-1.678066 0,-0.927132 0.774438,-1.678066 1.730588,-1.678066 0.956149,0 1.730587,0.750934 1.730587,1.678066 0,0.927131 -0.774438,1.678066 -1.730587,1.678066 z m -10.383527,0 c -0.9561498,0 -1.7305878,-0.750935 -1.7305878,-1.678066 0,-0.927132 0.774438,-1.678066 1.7305878,-1.678066 0.95615,0 1.730588,0.750934 1.730588,1.678066 0,0.927131 -0.774438,1.678066 -1.730588,1.678066 z"
     id="path4489"
     style="fill:#7d3c98;fill-opacity:1;stroke-width:0.85206228"
     inkscape:connector-curvature="0" /></svg>