<?xml version="1.0" encoding="UTF-8" standalone="no"?>
<svg
   xmlns:dc="http://purl.org/dc/elements/1.1/"
   xmlns:cc="http://creativecommons.org/ns#"
   xmlns:rdf="http://www.w3.org/1999/02/22-rdf-syntax-ns#"
   xmlns:svg="http://www.w3.org/2000/svg"
   xmlns="http://www.w3.org/2000/svg"
   xmlns:sodipodi="http://sodipodi.sourceforge.net/DTD/sodipodi-0.dtd"
   xmlns:inkscape="http://www.inkscape.org/namespaces/inkscape"
   id="Layer_1"
   style="enable-background:new 0 0 30 30;"
   version="1.1"
   viewBox="0 0 30 30"
   xml:space="preserve"
   sodipodi:docname="ICONSMS_.svg"
   inkscape:version="0.92.0 r15299"><metadata
     id="metadata4496"><rdf:RDF><cc:Work
         rdf:about=""><dc:format>image/svg+xml</dc:format><dc:type
           rdf:resource="http://purl.org/dc/dcmitype/StillImage" /><dc:title></dc:title></cc:Work></rdf:RDF></metadata><defs
     id="defs4494" /><sodipodi:namedview
     pagecolor="#ffffff"
     bordercolor="#666666"
     borderopacity="1"
     objecttolerance="10"
     gridtolerance="10"
     guidetolerance="10"
     inkscape:pageopacity="0"
     inkscape:pageshadow="2"
     inkscape:window-width="1920"
     inkscape:window-height="1017"
     id="namedview4492"
     showgrid="false"
     inkscape:zoom="28.266667"
     inkscape:cx="15"
     inkscape:cy="15"
     inkscape:window-x="-8"
     inkscape:window-y="-8"
     inkscape:window-maximized="1"
     inkscape:current-layer="Layer_1" /><path
     d="M8.612,22.397c0.072,1.537-0.143,3.65-2.29,4.637L6.5,27.99c2.897,0,6.099-1.922,7.332-5.158L8.612,22.397z"
     id="path4485"
     style="fill:#ffffff" /><circle
     cx="6.5"
     cy="27.5"
     r="0.5"
     id="circle4487" /><path
     d="M24,4H6C3.791,4,2,5.791,2,8v12c0,2.209,1.791,4,4,4h18c2.209,0,4-1.791,4-4V8C28,5.791,26.209,4,24,4z M15,16  c-1.105,0-2-0.895-2-2c0-1.105,0.895-2,2-2s2,0.895,2,2C17,15.105,16.105,16,15,16z M21,16c-1.105,0-2-0.895-2-2  c0-1.105,0.895-2,2-2s2,0.895,2,2C23,15.105,22.105,16,21,16z M9,16c-1.105,0-2-0.895-2-2c0-1.105,0.895-2,2-2s2,0.895,2,2  C11,15.105,10.105,16,9,16z"
     id="path4489"
     style="fill:#ffffff" /></svg>