<?xml version="1.0" encoding="UTF-8" standalone="no"?>
<svg
   xmlns:dc="http://purl.org/dc/elements/1.1/"
   xmlns:cc="http://creativecommons.org/ns#"
   xmlns:rdf="http://www.w3.org/1999/02/22-rdf-syntax-ns#"
   xmlns:svg="http://www.w3.org/2000/svg"
   xmlns="http://www.w3.org/2000/svg"
   xmlns:sodipodi="http://sodipodi.sourceforge.net/DTD/sodipodi-0.dtd"
   xmlns:inkscape="http://www.inkscape.org/namespaces/inkscape"
   enable-background="new 0 0 24 24"
   height="24px"
   id="Layer_1"
   version="1.1"
   viewBox="0 0 24 24"
   width="24px"
   xml:space="preserve"
   sodipodi:docname="mailIcon.svg"
   inkscape:version="0.92.0 r15299"><metadata
     id="metadata4492"><rdf:RDF><cc:Work
         rdf:about=""><dc:format>image/svg+xml</dc:format><dc:type
           rdf:resource="http://purl.org/dc/dcmitype/StillImage" /><dc:title></dc:title></cc:Work></rdf:RDF></metadata><defs
     id="defs4490" /><sodipodi:namedview
     pagecolor="#ffffff"
     bordercolor="#666666"
     borderopacity="1"
     objecttolerance="10"
     gridtolerance="10"
     guidetolerance="10"
     inkscape:pageopacity="0"
     inkscape:pageshadow="2"
     inkscape:window-width="1920"
     inkscape:window-height="1017"
     id="namedview4488"
     showgrid="false"
     inkscape:zoom="35.333333"
     inkscape:cx="12"
     inkscape:cy="12"
     inkscape:window-x="-8"
     inkscape:window-y="-8"
     inkscape:window-maximized="1"
     inkscape:current-layer="Layer_1" /><path
     d="m 12.083143,12.308019 c -1.614886,0 -9.9348977,-6.2844752 -9.9348977,-6.2844752 V 5.3330189 c 0,-0.8556001 0.7408796,-1.55 1.6554029,-1.55 H 20.362639 c 0.91535,0 1.656229,0.6943999 1.656229,1.55 l -0.01323,0.7749999 c 0,0 -8.229883,6.2000002 -9.922494,6.2000002 z m 0,2.131249 c 1.770339,0 9.922495,-6.0062491 9.922495,-6.0062491 l 0.01323,9.3000001 c 0,0.8556 -0.740879,1.55 -1.656229,1.55 H 3.8036482 c -0.9136964,0 -1.6554029,-0.6944 -1.6554029,-1.55 l 0.01323,-9.3000001 c -8.269e-4,0 8.3067817,6.0062491 9.9216677,6.0062491 z"
     id="path4485"
     style="clip-rule:evenodd;fill:#ff7c80;fill-opacity:1;fill-rule:evenodd;stroke-width:0.80051726"
     inkscape:connector-curvature="0" /></svg>